<?xml version="1.0" standalone="no"?><!DOCTYPE svg PUBLIC "-//W3C//DTD SVG 1.1//EN" "http://www.w3.org/Graphics/SVG/1.1/DTD/svg11.dtd"><svg class="icon" height="512" viewBox="0 0 1264 1024" version="1.1" xmlns="http://www.w3.org/2000/svg"><path d="M0 553.513214l0 322.882708 350.558369 0 0-322.882708L0 553.513214zM101.477423 821.044601l-46.126101 0 0-83.026982 46.126101 0L101.477423 821.044601zM101.477423 691.891518l-46.126101 0 0-83.026982 46.126101 0L101.477423 691.891518zM193.729625 821.044601l-36.900881 0 0-83.026982 46.126101 0 0 83.026982L193.729625 821.044601zM193.729625 691.891518l-36.900881 0 0-83.026982 46.126101 0 0 83.026982L193.729625 691.891518zM285.981827 821.044601l-36.900881 0 0-83.026982 46.126101 0 0 83.026982L285.981827 821.044601zM285.981827 691.891518l-36.900881 0 0-83.026982 46.126101 0 0 83.026982L285.981827 691.891518zM913.296804 553.513214l0 322.882708 350.558369 0 0-322.882708L913.296804 553.513214zM1014.774226 821.044601l-46.126101 0 0-83.026982 46.126101 0L1014.774226 821.044601 1014.774226 821.044601zM1014.774226 691.891518l-46.126101 0 0-83.026982 46.126101 0L1014.774226 691.891518 1014.774226 691.891518zM1107.026429 821.044601l-46.126101 0 0-83.026982 46.126101 0L1107.026429 821.044601zM1107.026429 691.891518l-46.126101 0 0-83.026982 46.126101 0L1107.026429 691.891518zM1199.278631 821.044601l-46.126101 0 0-83.026982 46.126101 0L1199.278631 821.044601zM1199.278631 691.891518l-46.126101 0 0-83.026982 46.126101 0L1199.278631 691.891518zM369.00881 387.45925l0 488.936673 516.612333 0 0-488.936673L369.00881 387.45925zM553.513214 452.035792l46.126101 0 0 138.378304-46.126101 0L553.513214 452.035792zM488.936673 802.594161l-46.126101 0L442.810571 654.990637l46.126101 0L488.936673 802.594161zM488.936673 590.414095l-46.126101 0 0-138.378304 46.126101 0L488.936673 590.414095zM701.116738 839.495042l-147.603524 0 0-184.504405 147.603524 0L701.116738 839.495042zM710.341958 590.414095l-46.126101 0 0-138.378304 46.126101 0L710.341958 590.414095zM821.044601 802.594161l-46.126101 0L774.9185 654.990637l46.126101 0L821.044601 802.594161zM821.044601 590.414095l-46.126101 0 0-138.378304 46.126101 0L821.044601 590.414095zM627.314976 230.630506 341.333149 369.00881 922.522024 369.00881ZM0 913.296804l1263.855173 0 0 36.900881-1263.855173 0 0-36.900881ZM0 987.098566l1263.855173 0 0 36.900881-1263.855173 0 0-36.900881ZM618.089756 0l0 9.22522c-36.900881-9.22522-73.801762 27.675661-101.477423 9.22522 0 27.675661 0 55.351321 0 83.026982 36.900881 27.675661 73.801762-18.45044 101.477423-9.22522l0 175.279185 18.45044 0 0-267.531387L618.089756 0z" /></svg>